<?xml version="1.0" standalone="no"?>
<!DOCTYPE svg PUBLIC "-//W3C//DTD SVG 20010904//EN"
 "http://www.w3.org/TR/2001/REC-SVG-20010904/DTD/svg10.dtd">
<svg version="1.0" xmlns="http://www.w3.org/2000/svg"
 width="760.000000pt" height="760.000000pt" viewBox="0 0 760.000000 760.000000"
 preserveAspectRatio="xMidYMid meet">
<metadata>
Created by potrace 1.11, written by Peter Selinger 2001-2013
</metadata>
<g transform="translate(0.000000,760.000000) scale(0.100000,-0.100000)"
fill="#000000" stroke="none">
<path d="M1103 4999 c-83 -17 -137 -68 -173 -164 -4 -11 -20 -46 -34 -78 -14
-32 -26 -62 -26 -67 0 -6 -5 -18 -10 -28 -10 -17 -98 -227 -104 -247 -4 -15
-23 -59 -46 -109 -11 -25 -20 -48 -20 -51 0 -4 -6 -21 -14 -38 -16 -34 -48
-112 -101 -242 -81 -200 -337 -822 -346 -840 -5 -11 -58 -139 -117 -285 l-109
-265 191 -3 c212 -3 248 3 302 50 45 40 38 24 204 428 78 190 146 354 151 365
5 11 22 52 37 90 l29 70 371 3 c306 2 372 0 372 -11 0 -8 -3 -17 -7 -21 -5 -4
-8 -11 -9 -14 0 -4 -8 -24 -17 -46 -9 -21 -17 -40 -17 -41 0 -1 -8 -20 -17
-41 -9 -22 -17 -41 -18 -44 0 -3 -17 -45 -38 -95 -21 -49 -42 -99 -46 -110 -5
-11 -20 -47 -34 -80 -38 -91 -193 -468 -200 -487 -6 -17 7 -18 196 -18 285 1
299 9 387 220 60 145 68 163 67 170 0 3 6 16 13 30 15 28 120 279 123 295 2 6
5 15 9 20 3 6 29 69 58 140 29 72 58 144 65 160 22 50 111 268 125 305 20 54
30 58 31 15 1 -22 3 -62 4 -90 9 -142 16 -282 20 -390 2 -66 5 -120 5 -120 1
0 3 -36 5 -80 2 -44 6 -123 9 -175 3 -52 8 -153 12 -225 6 -119 11 -231 13
-262 1 -10 50 -13 211 -13 224 0 246 4 306 57 19 16 76 107 74 115 -2 5 46
124 85 213 22 49 109 260 110 265 1 3 7 19 15 35 32 73 50 116 85 200 20 50
42 101 48 115 6 14 11 27 12 30 2 5 9 22 50 120 41 98 48 115 50 120 5 15 27
68 35 85 28 59 58 134 55 137 -2 2 4 14 14 27 17 23 18 23 20 -36 8 -150 11
-205 16 -298 3 -55 8 -136 10 -180 2 -44 4 -80 5 -80 1 0 3 -34 5 -75 8 -153
14 -278 20 -380 4 -58 9 -143 11 -190 3 -47 6 -112 8 -145 2 -33 4 -77 5 -97
l1 -38 225 0 c204 0 230 2 264 19 45 23 101 84 101 110 0 10 7 24 15 31 8 6
14 15 13 18 -3 13 15 67 24 73 5 3 10 14 13 25 4 20 65 174 91 231 8 17 14 33
14 36 0 3 10 27 22 54 11 26 22 53 24 58 2 9 98 246 127 315 5 14 11 30 12 35
3 12 92 242 105 270 5 11 23 56 40 100 17 44 35 89 40 100 5 11 33 83 63 160
85 218 183 466 248 629 34 84 56 152 50 155 -19 12 -371 3 -404 -10 -62 -25
-123 -86 -131 -132 -1 -6 -7 -21 -13 -32 -5 -11 -19 -45 -29 -75 -10 -30 -21
-57 -24 -60 -7 -7 -42 -103 -43 -117 0 -7 -4 -13 -9 -13 -4 0 -7 -3 -7 -7 1
-5 0 -11 -1 -15 -1 -5 -3 -11 -5 -15 -1 -5 -7 -19 -12 -33 -6 -14 -32 -79 -57
-145 -26 -66 -51 -129 -55 -140 -5 -11 -29 -72 -54 -135 -25 -63 -48 -124 -52
-135 -5 -11 -9 -22 -10 -25 -1 -3 -9 -22 -18 -44 -9 -21 -17 -42 -17 -47 0 -5
-4 -17 -10 -27 -11 -19 -28 -64 -27 -72 0 -3 -6 -16 -14 -30 -8 -14 -14 -29
-15 -35 0 -5 -6 -21 -11 -35 -37 -86 -73 -180 -73 -189 0 -6 -4 -11 -8 -11 -4
0 -8 21 -9 48 -1 26 -4 106 -8 177 -10 202 -15 309 -20 450 -2 72 -7 171 -10
220 -3 50 -7 140 -10 200 -2 61 -7 169 -10 240 -4 72 -7 154 -8 184 -2 41 -6
55 -19 60 -10 3 -94 5 -187 5 -153 -1 -174 -4 -215 -24 -38 -18 -106 -84 -106
-104 0 -5 -34 -84 -68 -156 -9 -19 -17 -37 -17 -40 -1 -3 -9 -23 -19 -45 -34
-77 -39 -90 -38 -97 1 -5 -3 -8 -10 -8 -6 0 -9 -3 -6 -6 5 -4 -12 -48 -72
-179 -54 -118 -78 -175 -73 -175 3 0 1 -6 -5 -12 -5 -7 -24 -47 -42 -88 -18
-41 -41 -94 -51 -117 -11 -23 -19 -47 -19 -52 0 -6 -5 -11 -12 -11 -6 0 -8 -3
-5 -6 3 -4 1 -16 -5 -28 -7 -11 -13 -27 -14 -35 -2 -8 -9 -18 -16 -22 -7 -5
-10 -9 -6 -9 7 0 -6 -33 -65 -160 -11 -25 -21 -47 -21 -50 -2 -10 -40 -95 -46
-100 -3 -3 -7 -14 -8 -25 -5 -24 -10 -31 -18 -23 -5 6 -8 138 -18 784 -2 122
-7 227 -10 233 -4 6 -2 11 4 11 6 0 9 4 5 10 -3 5 -8 125 -10 266 -3 142 -7
260 -10 262 -3 3 -99 5 -214 5 -195 0 -212 -1 -251 -22 -64 -33 -92 -72 -144
-199 -27 -64 -55 -130 -62 -147 -7 -16 -37 -91 -67 -165 -70 -172 -154 -376
-173 -417 -8 -17 -14 -35 -14 -40 0 -10 -738 -14 -744 -4 -2 3 88 227 199 496
111 270 201 492 199 494 -5 6 -361 6 -391 0z"/>
<path d="M5569 4998 c-97 -14 -146 -54 -189 -156 -45 -105 -53 -126 -55 -138
-2 -6 -11 -29 -20 -50 -9 -22 -21 -48 -25 -59 -5 -11 -18 -41 -29 -67 -11 -27
-17 -48 -13 -48 4 0 2 -4 -3 -8 -8 -5 -185 -435 -191 -462 -1 -7 -20 -52 -42
-103 -11 -23 -27 -64 -37 -92 -10 -27 -22 -54 -25 -60 -4 -5 -10 -19 -13 -30
-3 -11 -39 -103 -81 -204 -42 -101 -76 -190 -76 -198 0 -7 -4 -13 -8 -13 -5 0
-9 -6 -9 -12 0 -7 -11 -38 -25 -68 -14 -30 -29 -66 -33 -80 -4 -14 -13 -38
-20 -55 -29 -64 -77 -181 -79 -190 -2 -5 -8 -23 -15 -40 -64 -156 -111 -276
-111 -280 0 -3 90 -5 200 -5 178 0 205 2 238 19 64 33 90 71 148 217 30 76 59
148 64 159 11 23 32 75 36 90 3 12 50 126 72 175 8 19 16 38 17 43 2 4 4 9 5
12 1 3 3 8 5 13 3 12 17 44 38 92 11 25 21 52 23 60 2 8 26 68 53 133 27 64
47 117 45 117 -3 0 3 15 13 33 9 17 18 37 19 42 1 6 55 141 119 300 106 263
127 315 155 380 5 11 39 97 76 190 37 94 71 176 77 183 5 6 7 12 4 12 -4 0 7
32 24 71 17 39 28 73 25 76 -8 8 -305 9 -357 1z"/>
<path d="M6408 4999 c-93 -14 -140 -56 -193 -174 -19 -44 -40 -89 -45 -100
-26 -58 -68 -154 -129 -299 -174 -410 -393 -921 -411 -961 -11 -24 -20 -47
-20 -50 0 -3 -10 -27 -21 -53 -38 -82 -321 -746 -326 -764 -5 -17 9 -18 193
-18 303 1 296 -4 444 342 56 134 112 263 123 288 11 24 44 103 74 175 51 120
81 190 103 240 8 18 28 65 62 145 18 43 35 83 57 132 12 26 21 50 21 53 0 2
11 28 24 57 13 29 49 114 81 188 31 74 65 153 74 175 10 22 31 72 48 110 44
106 28 102 431 103 370 0 376 1 444 61 28 24 50 64 97 177 34 80 61 153 59
162 -3 14 -64 15 -574 16 -314 1 -591 -2 -616 -5z"/>
</g>
</svg>
